<mxfile host="app.diagrams.net" modified="2024-02-01T06:30:21.579Z" agent="Mozilla/5.0 (Windows NT 10.0; Win64; x64) AppleWebKit/537.36 (KHTML, like Gecko) Chrome/121.0.0.0 Safari/537.36" etag="0apMWlPcOAXeK3X2lRmy" version="23.0.2" type="github">
  <diagram name="第 1 页" id="aTgfJ98yVVHF9qyIf9Ut">
    <mxGraphModel dx="875" dy="442" grid="1" gridSize="10" guides="1" tooltips="1" connect="1" arrows="1" fold="1" page="1" pageScale="1" pageWidth="827" pageHeight="1169" math="0" shadow="0">
      <root>
        <mxCell id="0" />
        <mxCell id="1" parent="0" />
        <mxCell id="jQ0KqUvkUHR8p74bPFUn-11" value="" style="rounded=0;whiteSpace=wrap;html=1;" vertex="1" parent="1">
          <mxGeometry x="80" y="40" width="470" height="360" as="geometry" />
        </mxCell>
        <mxCell id="jQ0KqUvkUHR8p74bPFUn-1" value="Heap" style="rounded=0;whiteSpace=wrap;html=1;verticalAlign=top;fillColor=#f5f5f5;strokeColor=#666666;fontColor=#333333;" vertex="1" parent="1">
          <mxGeometry x="120" y="120" width="280" height="160" as="geometry" />
        </mxCell>
        <mxCell id="jQ0KqUvkUHR8p74bPFUn-5" value="Stack" style="rounded=0;whiteSpace=wrap;html=1;verticalAlign=top;fillColor=#ffe6cc;strokeColor=#d79b00;" vertex="1" parent="1">
          <mxGeometry x="480" y="80" width="40" height="160" as="geometry" />
        </mxCell>
        <mxCell id="jQ0KqUvkUHR8p74bPFUn-4" value="Stack" style="rounded=0;whiteSpace=wrap;html=1;verticalAlign=top;fillColor=#ffe6cc;strokeColor=#d79b00;" vertex="1" parent="1">
          <mxGeometry x="460" y="100" width="40" height="160" as="geometry" />
        </mxCell>
        <mxCell id="jQ0KqUvkUHR8p74bPFUn-3" value="Stack" style="rounded=0;whiteSpace=wrap;html=1;verticalAlign=top;fillColor=#ffe6cc;strokeColor=#d79b00;" vertex="1" parent="1">
          <mxGeometry x="440" y="120" width="40" height="160" as="geometry" />
        </mxCell>
        <mxCell id="jQ0KqUvkUHR8p74bPFUn-7" value="Method Area" style="rounded=0;whiteSpace=wrap;html=1;fillColor=#ffe6cc;strokeColor=#d79b00;" vertex="1" parent="1">
          <mxGeometry x="120" y="320" width="280" height="60" as="geometry" />
        </mxCell>
        <mxCell id="jQ0KqUvkUHR8p74bPFUn-8" value="GC Roots" style="rhombus;whiteSpace=wrap;html=1;fillColor=#1ba1e2;fontColor=#ffffff;strokeColor=#006EAF;" vertex="1" parent="1">
          <mxGeometry x="590" y="310" width="80" height="80" as="geometry" />
        </mxCell>
        <mxCell id="jQ0KqUvkUHR8p74bPFUn-12" value="" style="shape=flexArrow;endArrow=classic;html=1;rounded=0;entryX=0;entryY=0.5;entryDx=0;entryDy=0;exitX=1;exitY=0.5;exitDx=0;exitDy=0;fillColor=#f5f5f5;gradientColor=#b3b3b3;strokeColor=#666666;" edge="1" parent="1" source="jQ0KqUvkUHR8p74bPFUn-7" target="jQ0KqUvkUHR8p74bPFUn-8">
          <mxGeometry width="50" height="50" relative="1" as="geometry">
            <mxPoint x="410" y="280" as="sourcePoint" />
            <mxPoint x="460" y="230" as="targetPoint" />
          </mxGeometry>
        </mxCell>
        <mxCell id="jQ0KqUvkUHR8p74bPFUn-14" value="" style="html=1;shadow=0;dashed=0;align=center;verticalAlign=middle;shape=mxgraph.arrows2.bendArrow;dy=15;dx=38;notch=0;arrowHead=55;rounded=0;rotation=90;fillColor=#f5f5f5;gradientColor=#b3b3b3;strokeColor=#666666;" vertex="1" parent="1">
          <mxGeometry x="520" y="170" width="120" height="150" as="geometry" />
        </mxCell>
      </root>
    </mxGraphModel>
  </diagram>
</mxfile>
